<?xml version="1.0" standalone="no"?>
<!DOCTYPE svg PUBLIC "-//W3C//DTD SVG 20010904//EN"
 "http://www.w3.org/TR/2001/REC-SVG-20010904/DTD/svg10.dtd">
<svg version="1.0" xmlns="http://www.w3.org/2000/svg"
 width="281.000000pt" height="281.000000pt" viewBox="0 0 281.000000 281.000000"
 preserveAspectRatio="xMidYMid meet">
<metadata>
Created by potrace 1.16, written by Peter Selinger 2001-2019
</metadata>
<g transform="translate(0.000000,281.000000) scale(0.100000,-0.100000)"
fill="#000000" stroke="none">
<path d="M1210 2781 c-178 -26 -407 -118 -575 -232 -118 -80 -252 -216 -371
-376 -27 -37 -106 -194 -132 -263 -78 -210 -104 -402 -84 -628 22 -234 108
-467 246 -666 44 -65 51 -73 141 -165 226 -234 505 -369 841 -407 138 -16 157
-16 293 0 235 27 468 114 644 240 67 48 178 146 222 195 16 19 40 45 53 58 12
13 22 26 22 28 0 3 16 25 35 50 57 75 163 279 182 350 3 11 16 54 28 96 14 46
29 131 36 217 26 286 -19 520 -150 777 -121 238 -348 462 -600 590 -101 52
-140 67 -281 107 -97 27 -120 30 -300 33 -107 2 -220 0 -250 -4z m503 -204
c208 -61 369 -148 512 -277 80 -72 188 -206 225 -277 14 -26 32 -59 40 -73 23
-36 56 -122 85 -220 50 -165 52 -463 4 -617 -26 -87 -70 -205 -79 -218 -5 -5
-25 -41 -46 -80 -107 -201 -312 -388 -534 -488 -164 -74 -318 -107 -500 -107
-325 0 -621 122 -850 351 -62 62 -148 176 -185 244 -20 39 -40 75 -45 80 -9
13 -53 131 -80 219 -27 89 -40 273 -30 417 17 218 107 442 252 625 168 213
399 360 663 422 50 12 99 23 110 26 11 3 99 3 195 1 151 -3 187 -7 263 -28z"/>
<path d="M1360 2410 l0 -90 60 0 60 0 0 90 0 90 -60 0 -60 0 0 -90z"/>
<path d="M1871 2306 c-23 -40 -41 -77 -41 -82 0 -10 88 -59 94 -53 2 2 21 38
43 79 l40 76 -48 27 -48 26 -40 -73z"/>
<path d="M880 2350 c-14 -11 -31 -20 -37 -20 -10 0 53 -135 73 -159 5 -6 73
31 86 46 13 16 -61 153 -82 153 -8 0 -26 -9 -40 -20z"/>
<path d="M1387 2212 c-15 -17 -17 -57 -17 -375 0 -232 -4 -364 -11 -380 -11
-25 -24 -34 -109 -80 -30 -16 -62 -35 -70 -42 -8 -6 -42 -26 -75 -45 -130 -71
-144 -82 -145 -118 0 -36 27 -54 65 -43 16 5 176 96 265 151 51 32 115 60 136
60 13 0 33 9 45 21 17 17 20 28 14 62 -4 23 -9 206 -12 406 -3 320 -6 367 -20
383 -21 23 -45 23 -66 0z"/>
<path d="M485 1955 c-24 -41 -26 -65 -6 -65 5 0 35 -16 67 -35 32 -19 60 -35
63 -35 13 0 54 91 45 99 -5 5 -39 25 -76 45 l-67 36 -26 -45z"/>
<path d="M2258 1962 c-37 -21 -70 -41 -74 -45 -6 -5 22 -69 41 -95 1 -1 24 9
51 24 27 15 61 33 77 41 15 8 27 17 27 20 0 7 -50 93 -53 92 -1 0 -32 -17 -69
-37z"/>
<path d="M340 1415 l0 -55 90 0 90 0 0 55 0 55 -90 0 -90 0 0 -55z"/>
<path d="M2320 1415 l0 -55 90 0 90 0 0 55 0 55 -90 0 -90 0 0 -55z"/>
<path d="M590 996 c-20 -9 -115 -62 -129 -72 -6 -5 49 -94 59 -94 5 0 12 5 15
10 4 6 21 17 38 25 18 8 46 23 63 33 l31 18 -26 45 c-24 42 -28 45 -51 35z"/>
<path d="M2222 997 c-22 -28 -43 -80 -35 -87 4 -5 30 -20 57 -34 27 -14 55
-31 63 -38 12 -10 19 -7 34 12 19 24 42 71 37 75 -5 3 -80 46 -115 66 -24 13
-34 15 -41 6z"/>
<path d="M902 633 c-6 -16 -25 -52 -42 -80 -16 -29 -25 -53 -20 -53 5 0 26
-11 46 -25 20 -14 40 -23 44 -20 14 9 81 145 75 154 -4 7 -80 51 -88 51 -1 0
-8 -12 -15 -27z"/>
<path d="M1881 640 c-19 -11 -38 -23 -43 -28 -9 -9 55 -147 73 -157 3 -3 23 6
43 20 20 14 41 25 46 25 5 0 -4 24 -20 53 -17 28 -36 64 -42 80 -14 32 -13 31
-57 7z"/>
<path d="M1360 420 l0 -90 60 0 60 0 0 90 0 90 -60 0 -60 0 0 -90z"/>
</g>
</svg>
