<?xml version="1.0" standalone="no"?>
<!DOCTYPE svg PUBLIC "-//W3C//DTD SVG 20010904//EN"
 "http://www.w3.org/TR/2001/REC-SVG-20010904/DTD/svg10.dtd">
<svg version="1.0" xmlns="http://www.w3.org/2000/svg"
 width="632.000000pt" height="395.000000pt" viewBox="0 0 632.000000 395.000000"
 preserveAspectRatio="xMidYMid meet">
<metadata>
Created by potrace 1.16, written by Peter Selinger 2001-2019
</metadata>
<g transform="translate(0.000000,395.000000) scale(0.100000,-0.100000)"
fill="#000000" stroke="none">
<path d="M4094 3661 c-85 -22 -175 -91 -232 -177 -44 -65 -56 -113 -56 -219 0
-100 18 -152 80 -234 41 -53 81 -84 154 -119 47 -22 69 -26 155 -26 95 -1 104
1 170 33 85 42 148 106 187 189 91 197 13 424 -178 518 -68 34 -85 38 -162 41
-48 1 -101 -1 -118 -6z"/>
<path d="M3324 3211 c-29 -10 -65 -28 -80 -39 -33 -23 -148 -96 -214 -136 -25
-15 -83 -51 -130 -81 -47 -30 -107 -68 -135 -85 -27 -17 -88 -55 -135 -85 -47
-29 -121 -75 -165 -102 -99 -59 -194 -155 -230 -231 -63 -133 -49 -300 35
-396 23 -26 175 -146 186 -146 3 0 51 -31 107 -69 98 -66 146 -97 320 -206 43
-27 82 -54 88 -61 6 -8 -2 -24 -28 -51 -21 -21 -131 -136 -244 -254 -114 -117
-223 -233 -243 -257 -128 -154 -21 -385 179 -385 113 1 89 -19 526 434 324
336 406 422 427 449 49 62 56 172 17 253 -15 31 -92 107 -109 107 -4 0 -39 20
-79 43 -91 55 -175 104 -241 140 -84 47 -84 47 -3 95 40 24 104 63 142 87 39
25 73 45 78 45 4 0 7 -25 7 -55 0 -89 36 -152 109 -190 18 -9 74 -23 122 -31
49 -8 131 -21 182 -29 50 -9 137 -23 192 -31 55 -8 116 -19 135 -24 96 -24
225 -29 260 -10 61 33 120 123 119 180 0 40 -33 110 -68 145 -42 43 -95 56
-446 110 -49 7 -114 19 -143 25 l-52 12 6 66 c3 37 12 116 20 175 19 146 18
240 -3 285 -29 63 -126 205 -163 239 -60 56 -115 77 -210 80 -65 2 -97 -1
-136 -16z"/>
<path d="M1785 1835 c-277 -71 -478 -265 -566 -545 -33 -104 -34 -329 -2 -435
64 -217 211 -394 408 -492 133 -67 185 -78 355 -78 149 1 158 2 243 33 85 32
176 75 187 90 3 4 24 20 48 36 23 16 42 32 42 36 0 4 -22 19 -49 33 -27 15
-69 48 -94 73 l-45 47 -31 -22 c-17 -12 -61 -36 -98 -54 -66 -31 -72 -31 -203
-31 -156 0 -191 10 -309 89 -244 162 -316 486 -165 743 91 155 288 264 475
263 106 0 176 -20 292 -83 65 -36 183 -167 201 -226 4 -12 11 -22 14 -22 4 0
45 38 91 84 l85 85 -38 57 c-70 104 -198 217 -306 267 -166 78 -362 97 -535
52z"/>
<path d="M4170 1840 c-97 -23 -131 -36 -209 -78 -82 -44 -80 -42 -176 -137
-161 -160 -244 -371 -233 -593 8 -154 47 -269 136 -404 99 -152 232 -250 422
-314 79 -27 96 -29 235 -29 164 0 219 12 350 78 197 98 344 276 408 492 29 96
31 318 3 420 -56 213 -226 418 -421 508 -161 75 -354 96 -515 57z m284 -231
c92 -16 201 -74 272 -145 72 -71 103 -121 139 -223 63 -175 17 -397 -112 -541
-46 -50 -155 -125 -226 -153 -43 -17 -75 -21 -182 -21 -112 -1 -138 2 -188 22
-160 62 -283 186 -338 342 -34 93 -34 267 0 360 63 179 231 327 407 359 104
19 118 19 228 0z"/>
</g>
</svg>
