<?xml version="1.0" standalone="no"?>
<!DOCTYPE svg PUBLIC "-//W3C//DTD SVG 20010904//EN"
 "http://www.w3.org/TR/2001/REC-SVG-20010904/DTD/svg10.dtd">
<svg version="1.0" xmlns="http://www.w3.org/2000/svg"
 width="320.000000pt" height="311.000000pt" viewBox="0 0 320.000000 311.000000"
 preserveAspectRatio="xMidYMid meet">
<metadata>
Created by potrace 1.16, written by Peter Selinger 2001-2019
</metadata>
<g transform="translate(0.000000,311.000000) scale(0.100000,-0.100000)"
fill="#000000" stroke="none">
<path d="M347 3063 c-4 -3 -7 -96 -7 -205 0 -169 -2 -198 -15 -198 -13 0 -15
22 -15 135 l0 136 -62 -3 -63 -3 -3 -132 -3 -133 -80 0 -80 0 3 -47 3 -48 78
-3 77 -3 0 -127 c0 -70 4 -133 9 -140 5 -9 25 -12 62 -10 l54 3 3 138 c2 113
5 137 17 137 13 0 15 -31 15 -205 l0 -204 37 -7 c25 -5 45 -2 62 7 l26 15 3
197 c2 166 5 197 17 197 12 0 14 12 13 50 -2 33 -7 50 -15 50 -10 0 -13 41
-13 186 0 109 -4 193 -10 205 -8 15 -21 19 -59 19 -26 0 -51 -3 -54 -7z"/>
<path d="M2762 3058 c-9 -9 -12 -68 -12 -205 0 -165 -2 -193 -15 -193 -11 0
-15 -12 -15 -50 0 -38 4 -50 15 -50 13 0 15 -29 15 -200 0 -187 1 -200 19
-210 25 -13 67 -13 92 0 18 10 19 23 19 210 0 127 4 200 10 200 6 0 10 -50 10
-129 0 -148 3 -154 77 -149 l48 3 3 138 3 137 74 0 75 0 0 50 0 50 -75 0 -75
0 0 135 0 136 -62 -3 -63 -3 -3 -132 c-1 -78 -7 -133 -12 -133 -6 0 -10 75
-10 193 0 137 -3 196 -12 205 -7 7 -30 12 -53 12 -23 0 -46 -5 -53 -12z"/>
<path d="M607 2745 c-91 -31 -104 -96 -60 -320 32 -168 78 -300 134 -385 45
-68 65 -86 154 -137 39 -22 114 -65 167 -96 54 -32 100 -57 103 -57 3 0 19
-10 35 -22 l30 -22 0 -291 0 -291 -42 -24 c-24 -13 -64 -38 -89 -57 -26 -18
-49 -33 -53 -33 -3 0 -29 -16 -56 -35 -27 -19 -52 -35 -54 -35 -9 0 -79 -50
-101 -72 -34 -35 -64 -100 -81 -180 -18 -86 -21 -464 -4 -528 35 -131 196
-173 285 -73 33 37 36 61 38 321 l2 223 25 20 c14 10 48 33 75 50 28 16 77 48
110 69 33 21 83 52 110 69 l50 29 225 5 c125 2 240 9 259 16 27 8 38 8 50 -3
9 -7 23 -16 31 -19 8 -3 53 -30 100 -60 47 -31 123 -79 169 -109 45 -29 87
-63 92 -75 14 -38 21 -222 11 -333 -10 -118 -3 -155 35 -201 86 -102 253 -62
284 69 5 20 12 109 15 197 10 262 -27 447 -102 516 -16 14 -56 43 -89 64 -33
20 -78 49 -100 63 -22 14 -65 43 -97 64 -31 21 -59 38 -63 38 -4 0 -29 16 -55
35 -26 19 -52 35 -56 35 -5 1 -19 9 -31 19 -23 19 -23 22 -23 268 l0 248 216
124 c241 139 265 160 325 286 52 111 119 391 119 501 0 43 -5 56 -36 92 -34
41 -38 42 -95 42 -53 0 -63 -3 -94 -32 -31 -30 -39 -47 -70 -171 -35 -138 -66
-224 -106 -291 -21 -37 -51 -53 -281 -156 l-77 -35 -11 -50 c-21 -99 -91 -188
-190 -241 -28 -15 -56 -19 -140 -19 -126 1 -170 17 -243 92 -55 56 -86 117
-94 186 -3 26 -10 47 -15 47 -9 0 -131 56 -248 115 -67 33 -71 38 -118 145
-29 64 -49 131 -77 246 -17 75 -30 108 -49 127 -39 40 -93 51 -149 32z"/>
<path d="M815 2618 c4 -24 9 -46 12 -50 2 -5 355 -8 784 -8 615 0 780 3 784
13 2 6 6 29 10 50 l6 37 -801 0 -802 0 7 -42z"/>
<path d="M1498 2392 c-160 -59 -246 -207 -212 -368 15 -75 37 -113 91 -166 55
-52 114 -80 186 -85 168 -14 296 73 342 231 57 195 -90 394 -295 403 -43 2
-81 -3 -112 -15z"/>
</g>
</svg>
