<?xml version="1.0" standalone="no"?>
<!DOCTYPE svg PUBLIC "-//W3C//DTD SVG 20010904//EN"
 "http://www.w3.org/TR/2001/REC-SVG-20010904/DTD/svg10.dtd">
<svg version="1.0" xmlns="http://www.w3.org/2000/svg"
 width="190.000000pt" height="150.000000pt" viewBox="0 0 190.000000 150.000000"
 preserveAspectRatio="xMidYMid meet">
<metadata>
Created by potrace 1.16, written by Peter Selinger 2001-2019
</metadata>
<g transform="translate(0.000000,150.000000) scale(0.100000,-0.100000)"
fill="#000000" stroke="none">
<path d="M1455 1450 c-62 -41 -83 -126 -45 -188 58 -95 197 -95 246 0 21 41
21 111 -1 144 -40 62 -140 84 -200 44z"/>
<path d="M760 1380 c-163 -41 -190 -56 -190 -106 0 -45 28 -47 185 -9 81 19
157 35 170 35 28 0 155 -64 172 -86 6 -9 9 -22 6 -30 -3 -8 -55 -44 -117 -81
-153 -91 -221 -140 -236 -167 -16 -31 -7 -60 78 -244 51 -112 63 -148 55 -160
-9 -15 -36 -17 -194 -20 -152 -2 -186 -5 -201 -19 -24 -22 -24 -84 1 -114 l19
-24 284 -3 c155 -2 298 0 316 3 43 8 42 26 -9 156 -62 158 -99 270 -99 301 0
17 10 38 23 51 28 28 269 167 289 167 27 0 44 -34 77 -150 18 -63 40 -123 48
-132 22 -25 45 -23 241 19 181 39 212 53 212 98 0 43 -26 47 -174 24 -74 -12
-146 -19 -160 -15 -33 8 -45 34 -87 179 -22 78 -42 128 -59 146 -14 17 -106
70 -214 125 -222 113 -209 112 -436 56z"/>
<path d="M52 1112 c-32 -10 -28 -25 9 -35 49 -13 736 -4 749 9 9 9 8 14 -2 20
-15 11 -722 16 -756 6z"/>
<path d="M121 1019 c-19 -7 -22 -12 -12 -22 9 -9 85 -12 294 -12 284 0 332 4
308 28 -15 15 -554 21 -590 6z"/>
<path d="M182 932 c-32 -10 -28 -25 9 -35 49 -13 476 -4 489 9 9 9 8 14 -2 20
-16 11 -463 16 -496 6z"/>
<path d="M731 300 c-44 -10 -230 -137 -243 -165 -18 -40 40 -125 86 -125 15 0
78 43 172 116 188 147 208 165 192 176 -16 10 -162 9 -207 -2z"/>
</g>
</svg>
