<?xml version="1.0" standalone="no"?>
<!DOCTYPE svg PUBLIC "-//W3C//DTD SVG 20010904//EN"
 "http://www.w3.org/TR/2001/REC-SVG-20010904/DTD/svg10.dtd">
<svg version="1.0" xmlns="http://www.w3.org/2000/svg"
 width="225.000000pt" height="225.000000pt" viewBox="0 0 225.000000 225.000000"
 preserveAspectRatio="xMidYMid meet">

<g transform="translate(0.000000,225.000000) scale(0.100000,-0.100000)"
fill="#000000" stroke="none">
<path d="M1630 1853 c-8 -3 -27 -17 -42 -31 -119 -110 12 -295 159 -225 96 45
98 199 4 248 -29 15 -91 19 -121 8z"/>
<path d="M925 1771 c-82 -20 -160 -43 -172 -49 -37 -20 -42 -82 -8 -96 8 -3
79 11 157 30 170 42 202 41 286 -10 63 -38 79 -60 62 -81 -6 -7 -75 -51 -153
-98 -78 -47 -157 -101 -176 -121 -34 -35 -34 -36 -22 -78 7 -23 42 -104 77
-181 36 -77 64 -149 62 -161 -3 -20 -9 -21 -194 -26 -221 -6 -229 -8 -221 -77
8 -76 -8 -73 348 -73 314 0 319 0 319 20 0 12 -27 89 -59 173 -94 243 -100
276 -58 314 12 11 82 55 156 96 106 61 137 74 152 67 17 -10 28 -40 75 -205
19 -71 38 -95 73 -95 14 0 104 17 198 38 180 40 213 55 213 99 0 38 -32 43
-160 22 -63 -10 -129 -19 -146 -19 -53 0 -70 25 -110 160 -20 69 -45 140 -56
158 -16 26 -57 51 -219 132 -149 75 -209 100 -237 99 -20 0 -104 -17 -187 -38z"/>
<path d="M175 1490 c-3 -6 0 -12 7 -15 26 -10 773 0 771 10 -4 14 -769 19
-778 5z"/>
<path d="M255 1400 c-3 -6 0 -12 7 -15 26 -10 598 0 598 10 0 14 -596 19 -605
5z"/>
<path d="M305 1310 c-3 -6 0 -12 7 -15 26 -10 508 0 511 10 3 14 -509 19 -518
5z"/>
<path d="M852 680 c-13 -6 -66 -39 -118 -76 -85 -59 -94 -68 -94 -97 0 -41 52
-107 83 -107 13 0 90 53 182 126 230 180 222 164 85 163 -63 0 -125 -4 -138
-9z"/>
</g>
</svg>
