<?xml version="1.0" standalone="no"?>
<!DOCTYPE svg PUBLIC "-//W3C//DTD SVG 20010904//EN"
 "http://www.w3.org/TR/2001/REC-SVG-20010904/DTD/svg10.dtd">
<svg version="1.0" xmlns="http://www.w3.org/2000/svg"
 width="272.000000pt" height="313.000000pt" viewBox="0 0 272.000000 313.000000"
 preserveAspectRatio="xMidYMid meet">
<metadata>
Created by potrace 1.16, written by Peter Selinger 2001-2019
</metadata>
<g transform="translate(0.000000,313.000000) scale(0.100000,-0.100000)"
fill="#000000" stroke="none">
<path d="M983 3076 c-95 -30 -146 -82 -164 -165 -12 -58 1 -140 29 -183 57
-87 184 -123 277 -78 54 25 78 47 110 99 24 39 27 51 23 120 -3 69 -6 81 -36
118 -61 78 -159 114 -239 89z"/>
<path d="M775 2562 c-33 -16 -71 -41 -84 -56 -14 -14 -30 -26 -38 -26 -7 0
-30 -15 -50 -33 -21 -18 -57 -46 -81 -61 -77 -52 -129 -108 -140 -151 -20 -75
-43 -408 -32 -442 18 -50 90 -69 149 -38 38 19 41 30 52 175 16 221 18 235 44
251 13 8 40 28 61 46 22 18 54 44 72 58 l32 27 0 -294 c0 -237 3 -298 15 -321
16 -31 17 -21 -46 -277 -17 -69 -39 -161 -49 -205 -9 -44 -27 -120 -40 -170
-55 -221 -70 -287 -70 -307 0 -32 47 -94 81 -108 78 -33 149 25 168 136 7 38
27 125 46 194 52 193 95 369 106 430 12 66 39 162 48 173 8 8 102 -27 166 -61
22 -12 45 -22 51 -22 28 0 31 -27 18 -189 -13 -157 -12 -165 6 -202 24 -47 73
-65 132 -48 66 18 88 55 88 147 0 31 5 125 11 207 13 181 6 214 -56 256 -22
15 -50 30 -62 34 -13 3 -44 18 -70 33 -27 16 -60 32 -75 35 -14 4 -51 21 -82
39 l-56 32 0 186 c1 177 2 184 18 162 61 -82 108 -120 172 -140 89 -28 191
-49 276 -57 65 -7 73 -6 92 15 30 33 37 76 17 106 -21 32 -59 48 -204 85 -126
32 -119 27 -234 162 -17 22 -66 75 -107 119 -84 91 -131 116 -225 124 -52 5
-68 1 -120 -24z"/>
<path d="M2160 1555 l0 -195 -265 0 -265 0 0 -193 0 -193 -247 1 c-137 1 -256
0 -265 -3 -16 -4 -18 -22 -18 -193 l0 -189 -265 0 -265 0 0 -195 0 -195 -264
0 -264 0 -4 -28 c-2 -15 -2 -47 0 -70 l4 -42 339 0 339 0 0 195 0 195 270 0
270 0 0 190 0 190 265 0 265 0 0 190 0 190 265 0 265 0 0 200 0 200 189 0
c207 0 204 -1 197 60 -2 14 -4 37 -5 53 l-1 27 -270 0 -270 0 0 -195z"/>
</g>
</svg>
