<?xml version="1.0" standalone="no"?>
<!DOCTYPE svg PUBLIC "-//W3C//DTD SVG 20010904//EN"
 "http://www.w3.org/TR/2001/REC-SVG-20010904/DTD/svg10.dtd">
<svg version="1.0" xmlns="http://www.w3.org/2000/svg"
 width="202.000000pt" height="250.000000pt" viewBox="0 0 202.000000 250.000000"
 preserveAspectRatio="xMidYMid meet">
<metadata>
Created by potrace 1.16, written by Peter Selinger 2001-2019
</metadata>
<g transform="translate(0.000000,250.000000) scale(0.100000,-0.100000)"
fill="#000000" stroke="none">
<path d="M1115 2421 c-51 -13 -91 -39 -129 -82 -123 -144 -17 -370 173 -371
135 -1 231 94 231 227 0 107 -62 190 -164 220 -54 16 -65 17 -111 6z"/>
<path d="M930 1913 c-8 -3 -139 -48 -290 -99 -231 -79 -279 -99 -302 -124 -16
-17 -28 -36 -28 -43 -1 -6 -11 -104 -24 -217 -26 -233 -23 -259 33 -297 60
-41 141 -21 166 40 7 18 18 99 25 180 8 81 18 154 24 161 11 13 174 72 180 65
2 -2 -19 -56 -47 -119 -46 -106 -50 -123 -54 -210 -4 -76 -1 -105 14 -145 l19
-50 -168 -390 c-176 -410 -186 -441 -154 -503 26 -50 48 -62 117 -64 64 -1
112 14 136 44 6 7 67 140 136 296 68 156 129 283 133 284 9 1 62 -90 226 -392
56 -102 112 -197 126 -213 35 -37 90 -51 143 -36 74 23 130 117 110 185 -9 32
-210 405 -358 665 l-89 156 49 109 c27 60 60 134 74 164 l24 55 36 -63 c19
-34 43 -67 53 -72 10 -5 96 -40 191 -77 202 -78 242 -83 287 -40 17 16 32 40
35 54 7 37 -12 99 -38 123 -13 12 -92 48 -177 79 l-153 57 -90 163 c-102 185
-141 236 -199 262 -39 18 -132 24 -166 12z"/>
</g>
</svg>
