<?xml version="1.0" standalone="no"?>
<!DOCTYPE svg PUBLIC "-//W3C//DTD SVG 20010904//EN"
 "http://www.w3.org/TR/2001/REC-SVG-20010904/DTD/svg10.dtd">
<svg version="1.0" xmlns="http://www.w3.org/2000/svg"
 width="154.000000pt" height="239.000000pt" viewBox="0 0 154.000000 239.000000"
 preserveAspectRatio="xMidYMid meet">
<metadata>
Created by potrace 1.16, written by Peter Selinger 2001-2019
</metadata>
<g transform="translate(0.000000,239.000000) scale(0.100000,-0.100000)"
fill="#000000" stroke="none">
<path d="M890 2371 c-86 -26 -153 -95 -171 -176 -38 -168 123 -319 287 -270
102 30 164 113 164 220 0 107 -62 190 -164 220 -54 16 -78 17 -116 6z"/>
<path d="M690 1858 c-14 -5 -137 -48 -275 -95 -263 -89 -286 -99 -310 -137
-23 -35 -66 -440 -51 -486 27 -85 154 -108 202 -35 11 17 22 77 34 191 9 91
21 169 26 173 9 8 162 61 176 61 4 0 -9 -37 -29 -82 -64 -150 -75 -187 -74
-269 0 -49 7 -94 19 -125 l18 -49 -168 -390 c-177 -410 -186 -441 -154 -503
22 -42 47 -59 96 -65 59 -6 124 10 148 36 11 12 77 151 147 309 70 158 131
286 135 283 6 -4 175 -305 288 -515 64 -119 119 -154 203 -129 73 22 130 117
110 185 -11 40 -346 656 -426 784 l-22 35 52 115 c29 63 62 138 74 165 l22 50
33 -58 c18 -32 38 -63 43 -68 17 -17 365 -149 408 -155 35 -5 46 -2 74 22 43
36 53 65 42 116 -15 64 -44 84 -212 147 l-154 57 -90 163 c-102 185 -141 236
-199 262 -45 21 -144 25 -186 7z"/>
</g>
</svg>
